<mxfile host="65bd71144e">
    <diagram id="LhNuj9YgAD3AWuwG-GeH" name="Page-1">
        <mxGraphModel dx="3531" dy="1561" grid="1" gridSize="10" guides="1" tooltips="1" connect="1" arrows="1" fold="1" page="1" pageScale="1" pageWidth="850" pageHeight="1100" math="0" shadow="0">
            <root>
                <mxCell id="0"/>
                <mxCell id="1" parent="0"/>
                <mxCell id="224" value="" style="ellipse;whiteSpace=wrap;html=1;aspect=fixed;" vertex="1" parent="1">
                    <mxGeometry x="86.25" y="4100" width="700" height="700" as="geometry"/>
                </mxCell>
                <mxCell id="127" value="" style="ellipse;whiteSpace=wrap;html=1;aspect=fixed;" vertex="1" parent="1">
                    <mxGeometry x="-712.5" y="1830" width="600" height="600" as="geometry"/>
                </mxCell>
                <mxCell id="93" value="" style="ellipse;whiteSpace=wrap;html=1;aspect=fixed;" parent="1" vertex="1">
                    <mxGeometry x="200" y="2560" width="570" height="570" as="geometry"/>
                </mxCell>
                <mxCell id="91" value="" style="ellipse;whiteSpace=wrap;html=1;aspect=fixed;" parent="1" vertex="1">
                    <mxGeometry x="-697.5" y="2550" width="570" height="570" as="geometry"/>
                </mxCell>
                <mxCell id="50" value="" style="ellipse;whiteSpace=wrap;html=1;aspect=fixed;" parent="1" vertex="1">
                    <mxGeometry x="-770" y="980" width="690" height="690" as="geometry"/>
                </mxCell>
                <mxCell id="2" value="" style="whiteSpace=wrap;html=1;aspect=fixed;" parent="1" vertex="1">
                    <mxGeometry x="-475" y="996" width="110" height="110" as="geometry"/>
                </mxCell>
                <mxCell id="3" value="TM API" style="text;html=1;strokeColor=none;fillColor=none;align=center;verticalAlign=middle;whiteSpace=wrap;rounded=0;" parent="1" vertex="1">
                    <mxGeometry x="-455" y="1006" width="70" height="20" as="geometry"/>
                </mxCell>
                <mxCell id="4" value="" style="whiteSpace=wrap;html=1;aspect=fixed;" parent="1" vertex="1">
                    <mxGeometry x="70" y="225" width="110" height="110" as="geometry"/>
                </mxCell>
                <mxCell id="5" value="StubHub API" style="text;html=1;strokeColor=none;fillColor=none;align=center;verticalAlign=middle;whiteSpace=wrap;rounded=0;" parent="1" vertex="1">
                    <mxGeometry x="85" y="235" width="80" height="20" as="geometry"/>
                </mxCell>
                <mxCell id="6" value="" style="whiteSpace=wrap;html=1;aspect=fixed;" parent="1" vertex="1">
                    <mxGeometry x="200" y="225" width="110" height="110" as="geometry"/>
                </mxCell>
                <mxCell id="7" value="EO Scraper" style="text;html=1;strokeColor=none;fillColor=none;align=center;verticalAlign=middle;whiteSpace=wrap;rounded=0;" parent="1" vertex="1">
                    <mxGeometry x="215" y="235" width="80" height="20" as="geometry"/>
                </mxCell>
                <mxCell id="8" value="" style="whiteSpace=wrap;html=1;aspect=fixed;" parent="1" vertex="1">
                    <mxGeometry x="-60" y="351" width="110" height="110" as="geometry"/>
                </mxCell>
                <mxCell id="9" value="Spotify API" style="text;html=1;strokeColor=none;fillColor=none;align=center;verticalAlign=middle;whiteSpace=wrap;rounded=0;" parent="1" vertex="1">
                    <mxGeometry x="-40" y="361" width="70" height="20" as="geometry"/>
                </mxCell>
                <mxCell id="10" value="" style="whiteSpace=wrap;html=1;aspect=fixed;" parent="1" vertex="1">
                    <mxGeometry x="70" y="351" width="110" height="110" as="geometry"/>
                </mxCell>
                <mxCell id="11" value="LastFM API" style="text;html=1;strokeColor=none;fillColor=none;align=center;verticalAlign=middle;whiteSpace=wrap;rounded=0;" parent="1" vertex="1">
                    <mxGeometry x="90" y="361" width="70" height="20" as="geometry"/>
                </mxCell>
                <mxCell id="12" value="" style="whiteSpace=wrap;html=1;aspect=fixed;" parent="1" vertex="1">
                    <mxGeometry x="200" y="351" width="109" height="109" as="geometry"/>
                </mxCell>
                <mxCell id="13" value="MB API" style="text;html=1;strokeColor=none;fillColor=none;align=center;verticalAlign=middle;whiteSpace=wrap;rounded=0;" parent="1" vertex="1">
                    <mxGeometry x="220" y="361" width="70" height="20" as="geometry"/>
                </mxCell>
                <mxCell id="14" value="EventsRaw DB" style="ellipse;whiteSpace=wrap;html=1;" parent="1" vertex="1">
                    <mxGeometry x="360" y="224" width="120" height="80" as="geometry"/>
                </mxCell>
                <mxCell id="15" value="Events DB" style="ellipse;whiteSpace=wrap;html=1;" parent="1" vertex="1">
                    <mxGeometry x="360" y="313" width="120" height="80" as="geometry"/>
                </mxCell>
                <mxCell id="16" value="VenuesRaw DB" style="ellipse;whiteSpace=wrap;html=1;" parent="1" vertex="1">
                    <mxGeometry x="490" y="224" width="120" height="80" as="geometry"/>
                </mxCell>
                <mxCell id="17" value="Venues DB" style="ellipse;whiteSpace=wrap;html=1;" parent="1" vertex="1">
                    <mxGeometry x="490" y="313" width="120" height="80" as="geometry"/>
                </mxCell>
                <mxCell id="18" value="ArtistsRaw DB" style="ellipse;whiteSpace=wrap;html=1;" parent="1" vertex="1">
                    <mxGeometry x="620" y="224" width="120" height="80" as="geometry"/>
                </mxCell>
                <mxCell id="19" value="Artists DB" style="ellipse;whiteSpace=wrap;html=1;" parent="1" vertex="1">
                    <mxGeometry x="620" y="313" width="120" height="80" as="geometry"/>
                </mxCell>
                <mxCell id="20" value="AlbumsRaw DB" style="ellipse;whiteSpace=wrap;html=1;" parent="1" vertex="1">
                    <mxGeometry x="360" y="403" width="120" height="80" as="geometry"/>
                </mxCell>
                <mxCell id="21" value="Albums DB" style="ellipse;whiteSpace=wrap;html=1;" parent="1" vertex="1">
                    <mxGeometry x="360" y="492" width="120" height="80" as="geometry"/>
                </mxCell>
                <mxCell id="22" value="SongsRaw DB" style="ellipse;whiteSpace=wrap;html=1;" parent="1" vertex="1">
                    <mxGeometry x="490" y="403" width="120" height="80" as="geometry"/>
                </mxCell>
                <mxCell id="23" value="Songs DB" style="ellipse;whiteSpace=wrap;html=1;" parent="1" vertex="1">
                    <mxGeometry x="490" y="492" width="120" height="80" as="geometry"/>
                </mxCell>
                <mxCell id="25" value="Genres DB" style="ellipse;whiteSpace=wrap;html=1;" parent="1" vertex="1">
                    <mxGeometry x="620" y="403" width="120" height="80" as="geometry"/>
                </mxCell>
                <mxCell id="26" value="EventsArtistsRaw DB" style="ellipse;whiteSpace=wrap;html=1;" parent="1" vertex="1">
                    <mxGeometry x="750" y="220" width="120" height="80" as="geometry"/>
                </mxCell>
                <mxCell id="27" value="EventsArtists DB" style="ellipse;whiteSpace=wrap;html=1;" parent="1" vertex="1">
                    <mxGeometry x="750" y="315" width="120" height="80" as="geometry"/>
                </mxCell>
                <mxCell id="28" value="ArtistsGenresRaw DB" style="ellipse;whiteSpace=wrap;html=1;" parent="1" vertex="1">
                    <mxGeometry x="620" y="492" width="120" height="80" as="geometry"/>
                </mxCell>
                <mxCell id="29" value="ArtistsGenres DB" style="ellipse;whiteSpace=wrap;html=1;" parent="1" vertex="1">
                    <mxGeometry x="750" y="492" width="120" height="80" as="geometry"/>
                </mxCell>
                <mxCell id="30" value="" style="shape=parallelogram;perimeter=parallelogramPerimeter;whiteSpace=wrap;html=1;fixedSize=1;" parent="1" vertex="1">
                    <mxGeometry x="-700" y="1156" width="225" height="150" as="geometry"/>
                </mxCell>
                <mxCell id="31" value="TM&lt;br&gt;Events" style="text;html=1;strokeColor=none;fillColor=none;align=center;verticalAlign=middle;whiteSpace=wrap;rounded=0;" parent="1" vertex="1">
                    <mxGeometry x="-685" y="1216" width="40" height="30" as="geometry"/>
                </mxCell>
                <mxCell id="32" value="By City" style="text;html=1;strokeColor=none;fillColor=none;align=center;verticalAlign=middle;whiteSpace=wrap;rounded=0;" parent="1" vertex="1">
                    <mxGeometry x="-610" y="1161" width="50" height="30" as="geometry"/>
                </mxCell>
                <mxCell id="33" value="" style="shape=parallelogram;perimeter=parallelogramPerimeter;whiteSpace=wrap;html=1;fixedSize=1;" parent="1" vertex="1">
                    <mxGeometry x="-377.5" y="1162" width="225" height="150" as="geometry"/>
                </mxCell>
                <mxCell id="34" value="TM&lt;br&gt;Events" style="text;html=1;strokeColor=none;fillColor=none;align=center;verticalAlign=middle;whiteSpace=wrap;rounded=0;" parent="1" vertex="1">
                    <mxGeometry x="-362.5" y="1222" width="40" height="30" as="geometry"/>
                </mxCell>
                <mxCell id="35" value="By Venue" style="text;html=1;strokeColor=none;fillColor=none;align=center;verticalAlign=middle;whiteSpace=wrap;rounded=0;" parent="1" vertex="1">
                    <mxGeometry x="-287.5" y="1167" width="60" height="30" as="geometry"/>
                </mxCell>
                <mxCell id="38" value="" style="shape=flexArrow;endArrow=classic;html=1;" parent="1" edge="1">
                    <mxGeometry width="50" height="50" relative="1" as="geometry">
                        <mxPoint x="-455" y="1222" as="sourcePoint"/>
                        <mxPoint x="-385" y="1222" as="targetPoint"/>
                    </mxGeometry>
                </mxCell>
                <mxCell id="40" value="EventsRaw DB" style="ellipse;whiteSpace=wrap;html=1;" parent="1" vertex="1">
                    <mxGeometry x="-625" y="1410" width="120" height="80" as="geometry"/>
                </mxCell>
                <mxCell id="41" value="VenuesRaw DB" style="ellipse;whiteSpace=wrap;html=1;" parent="1" vertex="1">
                    <mxGeometry x="-745" y="1352" width="120" height="80" as="geometry"/>
                </mxCell>
                <mxCell id="42" value="" style="whiteSpace=wrap;html=1;aspect=fixed;" parent="1" vertex="1">
                    <mxGeometry x="-60" y="225" width="110" height="110" as="geometry"/>
                </mxCell>
                <mxCell id="43" value="TM API" style="text;html=1;strokeColor=none;fillColor=none;align=center;verticalAlign=middle;whiteSpace=wrap;rounded=0;" parent="1" vertex="1">
                    <mxGeometry x="-40" y="235" width="70" height="20" as="geometry"/>
                </mxCell>
                <mxCell id="44" value="" style="endArrow=none;dashed=1;html=1;entryX=0.5;entryY=0;entryDx=0;entryDy=0;exitX=0.427;exitY=1.004;exitDx=0;exitDy=0;exitPerimeter=0;" parent="1" source="30" target="40" edge="1">
                    <mxGeometry width="50" height="50" relative="1" as="geometry">
                        <mxPoint x="-655" y="1416" as="sourcePoint"/>
                        <mxPoint x="-605" y="1366" as="targetPoint"/>
                    </mxGeometry>
                </mxCell>
                <mxCell id="45" value="" style="endArrow=none;dashed=1;html=1;entryX=0.5;entryY=0;entryDx=0;entryDy=0;exitX=0.283;exitY=1.005;exitDx=0;exitDy=0;exitPerimeter=0;" parent="1" source="30" target="41" edge="1">
                    <mxGeometry width="50" height="50" relative="1" as="geometry">
                        <mxPoint x="-514.9950000000001" y="1386" as="sourcePoint"/>
                        <mxPoint x="-411.07" y="1515.4" as="targetPoint"/>
                    </mxGeometry>
                </mxCell>
                <mxCell id="46" value="" style="endArrow=none;dashed=1;html=1;exitX=0.408;exitY=0.999;exitDx=0;exitDy=0;exitPerimeter=0;entryX=0.5;entryY=0;entryDx=0;entryDy=0;" parent="1" source="33" target="40" edge="1">
                    <mxGeometry width="50" height="50" relative="1" as="geometry">
                        <mxPoint x="-364.9950000000002" y="1406" as="sourcePoint"/>
                        <mxPoint x="-505" y="1506" as="targetPoint"/>
                    </mxGeometry>
                </mxCell>
                <mxCell id="48" value="Events Deduplication" style="rounded=1;whiteSpace=wrap;html=1;" parent="1" vertex="1">
                    <mxGeometry x="420" y="2810" width="150" height="80" as="geometry"/>
                </mxCell>
                <mxCell id="49" value="Venues Deduplication" style="rounded=1;whiteSpace=wrap;html=1;" parent="1" vertex="1">
                    <mxGeometry x="-477.5" y="2795" width="150" height="80" as="geometry"/>
                </mxCell>
                <mxCell id="51" value="EventsRaw DB" style="ellipse;whiteSpace=wrap;html=1;" parent="1" vertex="1">
                    <mxGeometry x="230" y="2860" width="120" height="80" as="geometry"/>
                </mxCell>
                <mxCell id="52" value="VenuesRaw DB" style="ellipse;whiteSpace=wrap;html=1;" parent="1" vertex="1">
                    <mxGeometry x="-667.5" y="2795" width="120" height="80" as="geometry"/>
                </mxCell>
                <mxCell id="53" value="" style="endArrow=classic;html=1;entryX=0;entryY=0.5;entryDx=0;entryDy=0;exitX=1;exitY=0.5;exitDx=0;exitDy=0;" parent="1" source="52" target="49" edge="1">
                    <mxGeometry width="50" height="50" relative="1" as="geometry">
                        <mxPoint x="-132.5" y="2855" as="sourcePoint"/>
                        <mxPoint x="-82.5" y="2805" as="targetPoint"/>
                    </mxGeometry>
                </mxCell>
                <mxCell id="54" value="" style="endArrow=classic;html=1;entryX=0;entryY=0.5;entryDx=0;entryDy=0;exitX=1;exitY=0.5;exitDx=0;exitDy=0;" parent="1" source="51" target="48" edge="1">
                    <mxGeometry width="50" height="50" relative="1" as="geometry">
                        <mxPoint x="335" y="3090" as="sourcePoint"/>
                        <mxPoint x="355" y="3090" as="targetPoint"/>
                    </mxGeometry>
                </mxCell>
                <mxCell id="55" value="" style="ellipse;whiteSpace=wrap;html=1;aspect=fixed;" parent="1" vertex="1">
                    <mxGeometry x="80" y="960" width="690" height="690" as="geometry"/>
                </mxCell>
                <mxCell id="56" value="" style="whiteSpace=wrap;html=1;aspect=fixed;" parent="1" vertex="1">
                    <mxGeometry x="370" y="974" width="110" height="110" as="geometry"/>
                </mxCell>
                <mxCell id="57" value="EO Scraper" style="text;html=1;strokeColor=none;fillColor=none;align=center;verticalAlign=middle;whiteSpace=wrap;rounded=0;" parent="1" vertex="1">
                    <mxGeometry x="390" y="980" width="70" height="20" as="geometry"/>
                </mxCell>
                <mxCell id="58" value="" style="shape=parallelogram;perimeter=parallelogramPerimeter;whiteSpace=wrap;html=1;fixedSize=1;" parent="1" vertex="1">
                    <mxGeometry x="145" y="1150" width="225" height="150" as="geometry"/>
                </mxCell>
                <mxCell id="59" value="EO&lt;br&gt;Events" style="text;html=1;strokeColor=none;fillColor=none;align=center;verticalAlign=middle;whiteSpace=wrap;rounded=0;" parent="1" vertex="1">
                    <mxGeometry x="160" y="1210" width="40" height="30" as="geometry"/>
                </mxCell>
                <mxCell id="60" value="By Date" style="text;html=1;strokeColor=none;fillColor=none;align=center;verticalAlign=middle;whiteSpace=wrap;rounded=0;" parent="1" vertex="1">
                    <mxGeometry x="235" y="1155" width="50" height="30" as="geometry"/>
                </mxCell>
                <mxCell id="61" value="" style="shape=parallelogram;perimeter=parallelogramPerimeter;whiteSpace=wrap;html=1;fixedSize=1;" parent="1" vertex="1">
                    <mxGeometry x="480" y="1160" width="225" height="150" as="geometry"/>
                </mxCell>
                <mxCell id="62" value="TM&lt;br&gt;Events" style="text;html=1;strokeColor=none;fillColor=none;align=center;verticalAlign=middle;whiteSpace=wrap;rounded=0;" parent="1" vertex="1">
                    <mxGeometry x="495" y="1220" width="40" height="30" as="geometry"/>
                </mxCell>
                <mxCell id="63" value="By Venue" style="text;html=1;strokeColor=none;fillColor=none;align=center;verticalAlign=middle;whiteSpace=wrap;rounded=0;" parent="1" vertex="1">
                    <mxGeometry x="570" y="1165" width="60" height="30" as="geometry"/>
                </mxCell>
                <mxCell id="65" value="" style="shape=flexArrow;endArrow=classic;html=1;" parent="1" edge="1">
                    <mxGeometry width="50" height="50" relative="1" as="geometry">
                        <mxPoint x="395" y="1230" as="sourcePoint"/>
                        <mxPoint x="465" y="1230" as="targetPoint"/>
                    </mxGeometry>
                </mxCell>
                <mxCell id="67" value="EventsRaw DB" style="ellipse;whiteSpace=wrap;html=1;" parent="1" vertex="1">
                    <mxGeometry x="285" y="1430" width="120" height="80" as="geometry"/>
                </mxCell>
                <mxCell id="68" value="VenuesRaw DB" style="ellipse;whiteSpace=wrap;html=1;" parent="1" vertex="1">
                    <mxGeometry x="415" y="1430" width="120" height="80" as="geometry"/>
                </mxCell>
                <mxCell id="69" value="" style="endArrow=none;dashed=1;html=1;entryX=0.5;entryY=0;entryDx=0;entryDy=0;exitX=0.427;exitY=1.004;exitDx=0;exitDy=0;exitPerimeter=0;" parent="1" source="58" target="67" edge="1">
                    <mxGeometry width="50" height="50" relative="1" as="geometry">
                        <mxPoint x="195" y="1340" as="sourcePoint"/>
                        <mxPoint x="245" y="1290" as="targetPoint"/>
                    </mxGeometry>
                </mxCell>
                <mxCell id="70" value="" style="endArrow=none;dashed=1;html=1;entryX=0.5;entryY=0;entryDx=0;entryDy=0;exitX=0.577;exitY=1.001;exitDx=0;exitDy=0;exitPerimeter=0;" parent="1" source="58" target="68" edge="1">
                    <mxGeometry width="50" height="50" relative="1" as="geometry">
                        <mxPoint x="335.0049999999998" y="1310" as="sourcePoint"/>
                        <mxPoint x="438.93000000000006" y="1439.4" as="targetPoint"/>
                    </mxGeometry>
                </mxCell>
                <mxCell id="71" value="" style="endArrow=none;dashed=1;html=1;exitX=0.408;exitY=0.999;exitDx=0;exitDy=0;exitPerimeter=0;" parent="1" source="61" edge="1">
                    <mxGeometry width="50" height="50" relative="1" as="geometry">
                        <mxPoint x="485.0049999999999" y="1330" as="sourcePoint"/>
                        <mxPoint x="345" y="1430" as="targetPoint"/>
                    </mxGeometry>
                </mxCell>
                <mxCell id="72" value="" style="endArrow=none;dashed=1;html=1;exitX=0.5;exitY=1;exitDx=0;exitDy=0;entryX=0.5;entryY=0;entryDx=0;entryDy=0;" parent="1" source="61" target="68" edge="1">
                    <mxGeometry width="50" height="50" relative="1" as="geometry">
                        <mxPoint x="581.8" y="1319.8500000000001" as="sourcePoint"/>
                        <mxPoint x="355" y="1440" as="targetPoint"/>
                    </mxGeometry>
                </mxCell>
                <mxCell id="73" value="ArtistsRaw DB" style="ellipse;whiteSpace=wrap;html=1;" parent="1" vertex="1">
                    <mxGeometry x="-220" y="1350" width="120" height="80" as="geometry"/>
                </mxCell>
                <mxCell id="74" value="Genres DB" style="ellipse;whiteSpace=wrap;html=1;" parent="1" vertex="1">
                    <mxGeometry x="-517.5" y="1480" width="120" height="80" as="geometry"/>
                </mxCell>
                <mxCell id="75" value="EventsArtistsRaw DB" style="ellipse;whiteSpace=wrap;html=1;" parent="1" vertex="1">
                    <mxGeometry x="-397.5" y="1520" width="120" height="80" as="geometry"/>
                </mxCell>
                <mxCell id="76" value="" style="endArrow=none;dashed=1;html=1;exitX=0.5;exitY=0;exitDx=0;exitDy=0;entryX=0;entryY=0.75;entryDx=0;entryDy=0;" parent="1" source="74" target="33" edge="1">
                    <mxGeometry width="50" height="50" relative="1" as="geometry">
                        <mxPoint x="-275.6999999999998" y="1321.85" as="sourcePoint"/>
                        <mxPoint x="-535" y="1366" as="targetPoint"/>
                    </mxGeometry>
                </mxCell>
                <mxCell id="77" value="" style="endArrow=none;dashed=1;html=1;exitX=0.578;exitY=0.999;exitDx=0;exitDy=0;exitPerimeter=0;entryX=0.5;entryY=0;entryDx=0;entryDy=0;" parent="1" source="30" edge="1" target="74">
                    <mxGeometry width="50" height="50" relative="1" as="geometry">
                        <mxPoint x="-465" y="1476" as="sourcePoint"/>
                        <mxPoint x="-475" y="1466" as="targetPoint"/>
                        <Array as="points">
                            <mxPoint x="-440" y="1380"/>
                        </Array>
                    </mxGeometry>
                </mxCell>
                <mxCell id="78" value="" style="endArrow=none;dashed=1;html=1;exitX=0.5;exitY=0;exitDx=0;exitDy=0;entryX=0.598;entryY=0.995;entryDx=0;entryDy=0;entryPerimeter=0;" parent="1" source="75" target="30" edge="1">
                    <mxGeometry width="50" height="50" relative="1" as="geometry">
                        <mxPoint x="-465" y="1476" as="sourcePoint"/>
                        <mxPoint x="-362.26744186046494" y="1282.7558139534883" as="targetPoint"/>
                    </mxGeometry>
                </mxCell>
                <mxCell id="79" value="" style="endArrow=none;dashed=1;html=1;exitX=0.5;exitY=0;exitDx=0;exitDy=0;entryX=0.5;entryY=1;entryDx=0;entryDy=0;" parent="1" source="75" target="33" edge="1">
                    <mxGeometry width="50" height="50" relative="1" as="geometry">
                        <mxPoint x="-307.5" y="1461.9999999999998" as="sourcePoint"/>
                        <mxPoint x="-521.25" y="1316" as="targetPoint"/>
                    </mxGeometry>
                </mxCell>
                <mxCell id="80" value="" style="endArrow=none;dashed=1;html=1;exitX=0.8;exitY=1.007;exitDx=0;exitDy=0;entryX=0.5;entryY=0;entryDx=0;entryDy=0;exitPerimeter=0;" parent="1" source="30" target="73" edge="1">
                    <mxGeometry width="50" height="50" relative="1" as="geometry">
                        <mxPoint x="-307.5" y="1461.9999999999998" as="sourcePoint"/>
                        <mxPoint x="-255" y="1322" as="targetPoint"/>
                    </mxGeometry>
                </mxCell>
                <mxCell id="81" value="" style="endArrow=none;dashed=1;html=1;exitX=0.5;exitY=0;exitDx=0;exitDy=0;entryX=0.707;entryY=0.993;entryDx=0;entryDy=0;entryPerimeter=0;" parent="1" source="73" target="33" edge="1">
                    <mxGeometry width="50" height="50" relative="1" as="geometry">
                        <mxPoint x="-297.5" y="1471.9999999999998" as="sourcePoint"/>
                        <mxPoint x="-245" y="1332" as="targetPoint"/>
                    </mxGeometry>
                </mxCell>
                <mxCell id="82" value="Venues DB" style="ellipse;whiteSpace=wrap;html=1;" parent="1" vertex="1">
                    <mxGeometry x="-277.5" y="2795" width="120" height="80" as="geometry"/>
                </mxCell>
                <mxCell id="83" value="" style="endArrow=none;dashed=1;html=1;dashPattern=1 3;strokeWidth=2;entryX=0;entryY=0.5;entryDx=0;entryDy=0;exitX=1;exitY=0.5;exitDx=0;exitDy=0;" parent="1" source="49" target="82" edge="1">
                    <mxGeometry width="50" height="50" relative="1" as="geometry">
                        <mxPoint x="277.5" y="2805" as="sourcePoint"/>
                        <mxPoint x="327.5" y="2755" as="targetPoint"/>
                    </mxGeometry>
                </mxCell>
                <mxCell id="85" value="Events DB" style="ellipse;whiteSpace=wrap;html=1;" parent="1" vertex="1">
                    <mxGeometry x="630" y="2810" width="120" height="80" as="geometry"/>
                </mxCell>
                <mxCell id="86" value="" style="endArrow=none;dashed=1;html=1;dashPattern=1 3;strokeWidth=2;entryX=0;entryY=0.5;entryDx=0;entryDy=0;exitX=1;exitY=0.5;exitDx=0;exitDy=0;" parent="1" source="48" target="85" edge="1">
                    <mxGeometry width="50" height="50" relative="1" as="geometry">
                        <mxPoint x="425" y="3120" as="sourcePoint"/>
                        <mxPoint x="475" y="3070" as="targetPoint"/>
                    </mxGeometry>
                </mxCell>
                <mxCell id="87" value="Venues DB" style="ellipse;whiteSpace=wrap;html=1;" parent="1" vertex="1">
                    <mxGeometry x="230" y="2760" width="120" height="80" as="geometry"/>
                </mxCell>
                <mxCell id="88" value="" style="endArrow=classic;html=1;entryX=0;entryY=0.5;entryDx=0;entryDy=0;exitX=1;exitY=0.5;exitDx=0;exitDy=0;" parent="1" source="87" target="48" edge="1">
                    <mxGeometry width="50" height="50" relative="1" as="geometry">
                        <mxPoint x="-15" y="3330" as="sourcePoint"/>
                        <mxPoint x="55" y="3280" as="targetPoint"/>
                    </mxGeometry>
                </mxCell>
                <mxCell id="89" value="" style="shape=flexArrow;endArrow=classic;html=1;" parent="1" edge="1">
                    <mxGeometry width="50" height="50" relative="1" as="geometry">
                        <mxPoint x="1671.17" y="2530" as="sourcePoint"/>
                        <mxPoint x="1671.17" y="2590" as="targetPoint"/>
                    </mxGeometry>
                </mxCell>
                <mxCell id="92" value="" style="endArrow=none;html=1;fillColor=#fad7ac;strokeColor=#b46504;strokeWidth=8;" parent="1" edge="1">
                    <mxGeometry width="50" height="50" relative="1" as="geometry">
                        <mxPoint x="-840" y="1760" as="sourcePoint"/>
                        <mxPoint x="1690" y="1760" as="targetPoint"/>
                    </mxGeometry>
                </mxCell>
                <mxCell id="94" value="" style="shape=flexArrow;endArrow=classic;html=1;" parent="1" edge="1">
                    <mxGeometry width="50" height="50" relative="1" as="geometry">
                        <mxPoint x="-90" y="2880" as="sourcePoint"/>
                        <mxPoint x="160" y="2880" as="targetPoint"/>
                    </mxGeometry>
                </mxCell>
                <mxCell id="97" value="" style="endArrow=none;html=1;fillColor=#fad7ac;strokeColor=#b46504;strokeWidth=6;" parent="1" edge="1">
                    <mxGeometry width="50" height="50" relative="1" as="geometry">
                        <mxPoint x="-840" y="2500" as="sourcePoint"/>
                        <mxPoint x="1690" y="2510" as="targetPoint"/>
                    </mxGeometry>
                </mxCell>
                <mxCell id="98" value="" style="whiteSpace=wrap;html=1;aspect=fixed;" parent="1" vertex="1">
                    <mxGeometry x="-60" y="477" width="110" height="110" as="geometry"/>
                </mxCell>
                <mxCell id="99" value="Google Scraper" style="text;html=1;strokeColor=none;fillColor=none;align=center;verticalAlign=middle;whiteSpace=wrap;rounded=0;" parent="1" vertex="1">
                    <mxGeometry x="-50" y="483" width="90" height="20" as="geometry"/>
                </mxCell>
                <mxCell id="101" value="" style="whiteSpace=wrap;html=1;aspect=fixed;" parent="1" vertex="1">
                    <mxGeometry x="70" y="477" width="110" height="110" as="geometry"/>
                </mxCell>
                <mxCell id="102" value="Noinatim API" style="text;html=1;strokeColor=none;fillColor=none;align=center;verticalAlign=middle;whiteSpace=wrap;rounded=0;" parent="1" vertex="1">
                    <mxGeometry x="86.25" y="492" width="80" height="20" as="geometry"/>
                </mxCell>
                <mxCell id="103" value="OpenCage API" style="text;html=1;strokeColor=none;fillColor=none;align=center;verticalAlign=middle;whiteSpace=wrap;rounded=0;" parent="1" vertex="1">
                    <mxGeometry x="83.75" y="512" width="85" height="20" as="geometry"/>
                </mxCell>
                <mxCell id="104" value="PosionStack API" style="text;html=1;strokeColor=none;fillColor=none;align=center;verticalAlign=middle;whiteSpace=wrap;rounded=0;" parent="1" vertex="1">
                    <mxGeometry x="77.5" y="532" width="97.5" height="20" as="geometry"/>
                </mxCell>
                <mxCell id="105" value="" style="shape=flexArrow;endArrow=classic;html=1;" parent="1" edge="1">
                    <mxGeometry width="50" height="50" relative="1" as="geometry">
                        <mxPoint x="1681.17" y="1780" as="sourcePoint"/>
                        <mxPoint x="1681.17" y="1840" as="targetPoint"/>
                    </mxGeometry>
                </mxCell>
                <mxCell id="110" value="VenuesRaw DB" style="ellipse;whiteSpace=wrap;html=1;" vertex="1" parent="1">
                    <mxGeometry x="-467.5" y="1900" width="120" height="80" as="geometry"/>
                </mxCell>
                <mxCell id="113" value="" style="whiteSpace=wrap;html=1;aspect=fixed;" vertex="1" parent="1">
                    <mxGeometry x="-470" y="2020" width="110" height="110" as="geometry"/>
                </mxCell>
                <mxCell id="114" value="Google Scraper" style="text;html=1;strokeColor=none;fillColor=none;align=center;verticalAlign=middle;whiteSpace=wrap;rounded=0;" vertex="1" parent="1">
                    <mxGeometry x="-462.5" y="2030" width="95" height="20" as="geometry"/>
                </mxCell>
                <mxCell id="128" value="" style="endArrow=none;html=1;fillColor=#fad7ac;strokeColor=#b46504;strokeWidth=6;" edge="1" parent="1">
                    <mxGeometry width="50" height="50" relative="1" as="geometry">
                        <mxPoint x="-845" y="3170" as="sourcePoint"/>
                        <mxPoint x="1685" y="3180" as="targetPoint"/>
                    </mxGeometry>
                </mxCell>
                <mxCell id="129" value="" style="ellipse;whiteSpace=wrap;html=1;aspect=fixed;" vertex="1" parent="1">
                    <mxGeometry x="910" y="3299" width="700" height="700" as="geometry"/>
                </mxCell>
                <mxCell id="130" value="" style="whiteSpace=wrap;html=1;aspect=fixed;" vertex="1" parent="1">
                    <mxGeometry x="1217.5" y="3399" width="110" height="110" as="geometry"/>
                </mxCell>
                <mxCell id="131" value="Spotify API" style="text;html=1;strokeColor=none;fillColor=none;align=center;verticalAlign=middle;whiteSpace=wrap;rounded=0;" vertex="1" parent="1">
                    <mxGeometry x="1237.5" y="3409" width="70" height="20" as="geometry"/>
                </mxCell>
                <mxCell id="132" value="" style="shape=parallelogram;perimeter=parallelogramPerimeter;whiteSpace=wrap;html=1;fixedSize=1;" vertex="1" parent="1">
                    <mxGeometry x="1160" y="3565" width="225" height="150" as="geometry"/>
                </mxCell>
                <mxCell id="133" value="Spotify Artists" style="text;html=1;strokeColor=none;fillColor=none;align=center;verticalAlign=middle;whiteSpace=wrap;rounded=0;" vertex="1" parent="1">
                    <mxGeometry x="1175" y="3625" width="40" height="30" as="geometry"/>
                </mxCell>
                <mxCell id="141" value="ArtistsRaw DB" style="ellipse;whiteSpace=wrap;html=1;" vertex="1" parent="1">
                    <mxGeometry x="1430" y="3609" width="120" height="80" as="geometry"/>
                </mxCell>
                <mxCell id="147" value="Events DB" style="ellipse;whiteSpace=wrap;html=1;" vertex="1" parent="1">
                    <mxGeometry x="982.5" y="3600" width="120" height="80" as="geometry"/>
                </mxCell>
                <mxCell id="154" value="" style="shape=parallelogram;perimeter=parallelogramPerimeter;whiteSpace=wrap;html=1;fixedSize=1;" vertex="1" parent="1">
                    <mxGeometry x="-532.5" y="2180" width="225" height="150" as="geometry"/>
                </mxCell>
                <mxCell id="155" value="Venue Addresses" style="text;html=1;strokeColor=none;fillColor=none;align=center;verticalAlign=middle;whiteSpace=wrap;rounded=0;" vertex="1" parent="1">
                    <mxGeometry x="-517.5" y="2240" width="67.5" height="30" as="geometry"/>
                </mxCell>
                <mxCell id="156" value="" style="endArrow=classic;html=1;exitX=0.25;exitY=1;exitDx=0;exitDy=0;entryX=0.75;entryY=0;entryDx=0;entryDy=0;" edge="1" parent="1" source="2" target="30">
                    <mxGeometry width="50" height="50" relative="1" as="geometry">
                        <mxPoint x="-500" y="1340" as="sourcePoint"/>
                        <mxPoint x="-450" y="1290" as="targetPoint"/>
                    </mxGeometry>
                </mxCell>
                <mxCell id="157" value="" style="endArrow=classic;html=1;exitX=0.75;exitY=1;exitDx=0;exitDy=0;entryX=0.25;entryY=0;entryDx=0;entryDy=0;" edge="1" parent="1" source="2" target="33">
                    <mxGeometry width="50" height="50" relative="1" as="geometry">
                        <mxPoint x="-500" y="1340" as="sourcePoint"/>
                        <mxPoint x="-450" y="1290" as="targetPoint"/>
                    </mxGeometry>
                </mxCell>
                <mxCell id="158" value="" style="endArrow=classic;html=1;exitX=0.25;exitY=1;exitDx=0;exitDy=0;entryX=0.75;entryY=0;entryDx=0;entryDy=0;" edge="1" parent="1" source="56" target="58">
                    <mxGeometry width="50" height="50" relative="1" as="geometry">
                        <mxPoint x="120" y="1340" as="sourcePoint"/>
                        <mxPoint x="170" y="1290" as="targetPoint"/>
                    </mxGeometry>
                </mxCell>
                <mxCell id="159" value="" style="endArrow=classic;html=1;exitX=0.81;exitY=1.015;exitDx=0;exitDy=0;exitPerimeter=0;entryX=0.25;entryY=0;entryDx=0;entryDy=0;" edge="1" parent="1" source="56" target="61">
                    <mxGeometry width="50" height="50" relative="1" as="geometry">
                        <mxPoint x="170" y="1260" as="sourcePoint"/>
                        <mxPoint x="220" y="1210" as="targetPoint"/>
                    </mxGeometry>
                </mxCell>
                <mxCell id="160" value="" style="endArrow=classic;html=1;exitX=0.5;exitY=1;exitDx=0;exitDy=0;entryX=0.5;entryY=0;entryDx=0;entryDy=0;" edge="1" parent="1" source="113" target="154">
                    <mxGeometry width="50" height="50" relative="1" as="geometry">
                        <mxPoint x="-202.5" y="2410" as="sourcePoint"/>
                        <mxPoint x="-152.5" y="2360" as="targetPoint"/>
                    </mxGeometry>
                </mxCell>
                <mxCell id="161" value="" style="endArrow=none;dashed=1;html=1;dashPattern=1 3;strokeWidth=2;exitX=1;exitY=0.5;exitDx=0;exitDy=0;entryX=1;entryY=0.5;entryDx=0;entryDy=0;" edge="1" parent="1" source="154" target="110">
                    <mxGeometry width="50" height="50" relative="1" as="geometry">
                        <mxPoint x="-202.5" y="2360" as="sourcePoint"/>
                        <mxPoint x="-152.5" y="2310" as="targetPoint"/>
                        <Array as="points">
                            <mxPoint x="-212.5" y="2180"/>
                        </Array>
                    </mxGeometry>
                </mxCell>
                <mxCell id="162" value="" style="endArrow=classic;html=1;exitX=0;exitY=0.5;exitDx=0;exitDy=0;entryX=0;entryY=0.5;entryDx=0;entryDy=0;" edge="1" parent="1" source="110" target="154">
                    <mxGeometry width="50" height="50" relative="1" as="geometry">
                        <mxPoint x="-202.5" y="2360" as="sourcePoint"/>
                        <mxPoint x="-152.5" y="2310" as="targetPoint"/>
                        <Array as="points">
                            <mxPoint x="-622.5" y="2080"/>
                        </Array>
                    </mxGeometry>
                </mxCell>
                <mxCell id="165" value="" style="ellipse;whiteSpace=wrap;html=1;aspect=fixed;" vertex="1" parent="1">
                    <mxGeometry x="185" y="1800" width="600" height="600" as="geometry"/>
                </mxCell>
                <mxCell id="166" value="VenuesRaw DB" style="ellipse;whiteSpace=wrap;html=1;" vertex="1" parent="1">
                    <mxGeometry x="430" y="1870" width="120" height="80" as="geometry"/>
                </mxCell>
                <mxCell id="167" value="" style="whiteSpace=wrap;html=1;aspect=fixed;" vertex="1" parent="1">
                    <mxGeometry x="427.5" y="1990" width="110" height="110" as="geometry"/>
                </mxCell>
                <mxCell id="169" value="" style="shape=parallelogram;perimeter=parallelogramPerimeter;whiteSpace=wrap;html=1;fixedSize=1;" vertex="1" parent="1">
                    <mxGeometry x="365" y="2150" width="225" height="150" as="geometry"/>
                </mxCell>
                <mxCell id="170" value="Venue Coordinates" style="text;html=1;strokeColor=none;fillColor=none;align=center;verticalAlign=middle;whiteSpace=wrap;rounded=0;" vertex="1" parent="1">
                    <mxGeometry x="380" y="2210" width="67.5" height="30" as="geometry"/>
                </mxCell>
                <mxCell id="171" value="" style="endArrow=classic;html=1;exitX=0.5;exitY=1;exitDx=0;exitDy=0;entryX=0.5;entryY=0;entryDx=0;entryDy=0;" edge="1" parent="1" source="167" target="169">
                    <mxGeometry width="50" height="50" relative="1" as="geometry">
                        <mxPoint x="695" y="2380" as="sourcePoint"/>
                        <mxPoint x="745" y="2330" as="targetPoint"/>
                    </mxGeometry>
                </mxCell>
                <mxCell id="172" value="" style="endArrow=none;dashed=1;html=1;dashPattern=1 3;strokeWidth=2;exitX=1;exitY=0.5;exitDx=0;exitDy=0;entryX=1;entryY=0.5;entryDx=0;entryDy=0;" edge="1" parent="1" source="169" target="166">
                    <mxGeometry width="50" height="50" relative="1" as="geometry">
                        <mxPoint x="695" y="2330" as="sourcePoint"/>
                        <mxPoint x="745" y="2280" as="targetPoint"/>
                        <Array as="points">
                            <mxPoint x="685" y="2150"/>
                        </Array>
                    </mxGeometry>
                </mxCell>
                <mxCell id="173" value="" style="endArrow=classic;html=1;exitX=0;exitY=0.5;exitDx=0;exitDy=0;entryX=0;entryY=0.5;entryDx=0;entryDy=0;" edge="1" parent="1" source="166" target="169">
                    <mxGeometry width="50" height="50" relative="1" as="geometry">
                        <mxPoint x="695" y="2330" as="sourcePoint"/>
                        <mxPoint x="745" y="2280" as="targetPoint"/>
                        <Array as="points">
                            <mxPoint x="275" y="2050"/>
                        </Array>
                    </mxGeometry>
                </mxCell>
                <mxCell id="174" value="Noinatim API" style="text;html=1;strokeColor=none;fillColor=none;align=center;verticalAlign=middle;whiteSpace=wrap;rounded=0;" vertex="1" parent="1">
                    <mxGeometry x="442.5" y="2000" width="80" height="20" as="geometry"/>
                </mxCell>
                <mxCell id="175" value="OpenCage API" style="text;html=1;strokeColor=none;fillColor=none;align=center;verticalAlign=middle;whiteSpace=wrap;rounded=0;" vertex="1" parent="1">
                    <mxGeometry x="440" y="2020" width="85" height="20" as="geometry"/>
                </mxCell>
                <mxCell id="176" value="PosionStack API" style="text;html=1;strokeColor=none;fillColor=none;align=center;verticalAlign=middle;whiteSpace=wrap;rounded=0;" vertex="1" parent="1">
                    <mxGeometry x="433.75" y="2040" width="97.5" height="20" as="geometry"/>
                </mxCell>
                <mxCell id="177" value="" style="endArrow=classic;html=1;exitX=1;exitY=0.5;exitDx=0;exitDy=0;entryX=0;entryY=0.5;entryDx=0;entryDy=0;" edge="1" parent="1" source="147" target="132">
                    <mxGeometry width="50" height="50" relative="1" as="geometry">
                        <mxPoint x="1288.5749999999998" y="3576.2" as="sourcePoint"/>
                        <mxPoint x="1335" y="3479" as="targetPoint"/>
                    </mxGeometry>
                </mxCell>
                <mxCell id="178" value="" style="endArrow=classic;html=1;exitX=0.5;exitY=1;exitDx=0;exitDy=0;entryX=0.5;entryY=0;entryDx=0;entryDy=0;" edge="1" parent="1" source="130" target="132">
                    <mxGeometry width="50" height="50" relative="1" as="geometry">
                        <mxPoint x="1298.5749999999998" y="3586.2" as="sourcePoint"/>
                        <mxPoint x="1345" y="3489" as="targetPoint"/>
                    </mxGeometry>
                </mxCell>
                <mxCell id="179" value="" style="endArrow=none;dashed=1;html=1;dashPattern=1 3;strokeWidth=2;exitX=1;exitY=0.5;exitDx=0;exitDy=0;" edge="1" parent="1" source="132" target="141">
                    <mxGeometry width="50" height="50" relative="1" as="geometry">
                        <mxPoint x="1560" y="3899" as="sourcePoint"/>
                        <mxPoint x="1610" y="3849" as="targetPoint"/>
                    </mxGeometry>
                </mxCell>
                <mxCell id="180" value="" style="ellipse;whiteSpace=wrap;html=1;aspect=fixed;" vertex="1" parent="1">
                    <mxGeometry x="83.75" y="3310" width="700" height="700" as="geometry"/>
                </mxCell>
                <mxCell id="181" value="" style="whiteSpace=wrap;html=1;aspect=fixed;" vertex="1" parent="1">
                    <mxGeometry x="387.5" y="3399" width="110" height="110" as="geometry"/>
                </mxCell>
                <mxCell id="182" value="LFM API" style="text;html=1;strokeColor=none;fillColor=none;align=center;verticalAlign=middle;whiteSpace=wrap;rounded=0;" vertex="1" parent="1">
                    <mxGeometry x="407.5" y="3409" width="70" height="20" as="geometry"/>
                </mxCell>
                <mxCell id="183" value="" style="shape=parallelogram;perimeter=parallelogramPerimeter;whiteSpace=wrap;html=1;fixedSize=1;" vertex="1" parent="1">
                    <mxGeometry x="330" y="3565" width="225" height="150" as="geometry"/>
                </mxCell>
                <mxCell id="184" value="LFM Artists" style="text;html=1;strokeColor=none;fillColor=none;align=center;verticalAlign=middle;whiteSpace=wrap;rounded=0;" vertex="1" parent="1">
                    <mxGeometry x="345" y="3625" width="40" height="30" as="geometry"/>
                </mxCell>
                <mxCell id="185" value="ArtistsRaw DB" style="ellipse;whiteSpace=wrap;html=1;" vertex="1" parent="1">
                    <mxGeometry x="600" y="3609" width="120" height="80" as="geometry"/>
                </mxCell>
                <mxCell id="186" value="Events DB" style="ellipse;whiteSpace=wrap;html=1;" vertex="1" parent="1">
                    <mxGeometry x="152.5" y="3600" width="120" height="80" as="geometry"/>
                </mxCell>
                <mxCell id="187" value="" style="endArrow=classic;html=1;exitX=1;exitY=0.5;exitDx=0;exitDy=0;entryX=0;entryY=0.5;entryDx=0;entryDy=0;" edge="1" parent="1" source="186" target="183">
                    <mxGeometry width="50" height="50" relative="1" as="geometry">
                        <mxPoint x="458.5749999999998" y="3576.2" as="sourcePoint"/>
                        <mxPoint x="505" y="3479" as="targetPoint"/>
                    </mxGeometry>
                </mxCell>
                <mxCell id="188" value="" style="endArrow=classic;html=1;exitX=0.5;exitY=1;exitDx=0;exitDy=0;entryX=0.5;entryY=0;entryDx=0;entryDy=0;" edge="1" parent="1" source="181" target="183">
                    <mxGeometry width="50" height="50" relative="1" as="geometry">
                        <mxPoint x="468.5749999999998" y="3586.2" as="sourcePoint"/>
                        <mxPoint x="515" y="3489" as="targetPoint"/>
                    </mxGeometry>
                </mxCell>
                <mxCell id="189" value="" style="endArrow=none;dashed=1;html=1;dashPattern=1 3;strokeWidth=2;exitX=1;exitY=0.5;exitDx=0;exitDy=0;" edge="1" parent="1" source="183" target="185">
                    <mxGeometry width="50" height="50" relative="1" as="geometry">
                        <mxPoint x="730" y="3899" as="sourcePoint"/>
                        <mxPoint x="780" y="3849" as="targetPoint"/>
                    </mxGeometry>
                </mxCell>
                <mxCell id="190" value="" style="ellipse;whiteSpace=wrap;html=1;aspect=fixed;" vertex="1" parent="1">
                    <mxGeometry x="-735" y="3290" width="700" height="700" as="geometry"/>
                </mxCell>
                <mxCell id="191" value="" style="whiteSpace=wrap;html=1;aspect=fixed;" vertex="1" parent="1">
                    <mxGeometry x="-427.5" y="3390" width="110" height="110" as="geometry"/>
                </mxCell>
                <mxCell id="192" value="MB API" style="text;html=1;strokeColor=none;fillColor=none;align=center;verticalAlign=middle;whiteSpace=wrap;rounded=0;" vertex="1" parent="1">
                    <mxGeometry x="-407.5" y="3400" width="70" height="20" as="geometry"/>
                </mxCell>
                <mxCell id="193" value="" style="shape=parallelogram;perimeter=parallelogramPerimeter;whiteSpace=wrap;html=1;fixedSize=1;" vertex="1" parent="1">
                    <mxGeometry x="-485" y="3556" width="225" height="150" as="geometry"/>
                </mxCell>
                <mxCell id="194" value="MB Artists" style="text;html=1;strokeColor=none;fillColor=none;align=center;verticalAlign=middle;whiteSpace=wrap;rounded=0;" vertex="1" parent="1">
                    <mxGeometry x="-470" y="3616" width="40" height="30" as="geometry"/>
                </mxCell>
                <mxCell id="195" value="ArtistsRaw DB" style="ellipse;whiteSpace=wrap;html=1;" vertex="1" parent="1">
                    <mxGeometry x="-200" y="3545" width="120" height="80" as="geometry"/>
                </mxCell>
                <mxCell id="196" value="Events DB" style="ellipse;whiteSpace=wrap;html=1;" vertex="1" parent="1">
                    <mxGeometry x="-662.5" y="3591" width="120" height="80" as="geometry"/>
                </mxCell>
                <mxCell id="197" value="" style="endArrow=classic;html=1;exitX=1;exitY=0.5;exitDx=0;exitDy=0;entryX=0;entryY=0.5;entryDx=0;entryDy=0;" edge="1" parent="1" source="196" target="193">
                    <mxGeometry width="50" height="50" relative="1" as="geometry">
                        <mxPoint x="-356.4250000000002" y="3567.2" as="sourcePoint"/>
                        <mxPoint x="-310" y="3470" as="targetPoint"/>
                    </mxGeometry>
                </mxCell>
                <mxCell id="198" value="" style="endArrow=classic;html=1;exitX=0.5;exitY=1;exitDx=0;exitDy=0;entryX=0.5;entryY=0;entryDx=0;entryDy=0;" edge="1" parent="1" source="191" target="193">
                    <mxGeometry width="50" height="50" relative="1" as="geometry">
                        <mxPoint x="-346.4250000000002" y="3577.2" as="sourcePoint"/>
                        <mxPoint x="-300" y="3480" as="targetPoint"/>
                    </mxGeometry>
                </mxCell>
                <mxCell id="199" value="" style="endArrow=none;dashed=1;html=1;dashPattern=1 3;strokeWidth=2;exitX=1;exitY=0.5;exitDx=0;exitDy=0;" edge="1" parent="1" source="193" target="195">
                    <mxGeometry width="50" height="50" relative="1" as="geometry">
                        <mxPoint x="-85" y="3890" as="sourcePoint"/>
                        <mxPoint x="-35" y="3840" as="targetPoint"/>
                    </mxGeometry>
                </mxCell>
                <mxCell id="200" value="" style="endArrow=none;html=1;fillColor=#fad7ac;strokeColor=#b46504;strokeWidth=6;" edge="1" parent="1">
                    <mxGeometry width="50" height="50" relative="1" as="geometry">
                        <mxPoint x="-840" y="4029" as="sourcePoint"/>
                        <mxPoint x="1690" y="4039" as="targetPoint"/>
                    </mxGeometry>
                </mxCell>
                <mxCell id="202" value="" style="shape=flexArrow;endArrow=classic;html=1;" edge="1" parent="1">
                    <mxGeometry width="50" height="50" relative="1" as="geometry">
                        <mxPoint x="1681.17" y="3200" as="sourcePoint"/>
                        <mxPoint x="1681.17" y="3260" as="targetPoint"/>
                    </mxGeometry>
                </mxCell>
                <mxCell id="205" value="Artists Deduplication" style="rounded=1;whiteSpace=wrap;html=1;" vertex="1" parent="1">
                    <mxGeometry x="365" y="4412.5" width="150" height="80" as="geometry"/>
                </mxCell>
                <mxCell id="206" value="ArtistsRaw DB" style="ellipse;whiteSpace=wrap;html=1;" vertex="1" parent="1">
                    <mxGeometry x="150" y="4452.5" width="120" height="80" as="geometry"/>
                </mxCell>
                <mxCell id="207" value="" style="endArrow=classic;html=1;entryX=0;entryY=0.5;entryDx=0;entryDy=0;exitX=1;exitY=0.5;exitDx=0;exitDy=0;" edge="1" parent="1" source="206" target="205">
                    <mxGeometry width="50" height="50" relative="1" as="geometry">
                        <mxPoint x="710" y="4472.5" as="sourcePoint"/>
                        <mxPoint x="760" y="4422.5" as="targetPoint"/>
                    </mxGeometry>
                </mxCell>
                <mxCell id="208" value="Artists DB" style="ellipse;whiteSpace=wrap;html=1;" vertex="1" parent="1">
                    <mxGeometry x="613.75" y="4452.5" width="120" height="80" as="geometry"/>
                </mxCell>
                <mxCell id="209" value="" style="endArrow=none;dashed=1;html=1;dashPattern=1 3;strokeWidth=2;entryX=0;entryY=0.5;entryDx=0;entryDy=0;exitX=1;exitY=0.5;exitDx=0;exitDy=0;" edge="1" parent="1" source="205" target="208">
                    <mxGeometry width="50" height="50" relative="1" as="geometry">
                        <mxPoint x="1120" y="4422.5" as="sourcePoint"/>
                        <mxPoint x="1170" y="4372.5" as="targetPoint"/>
                    </mxGeometry>
                </mxCell>
                <mxCell id="210" value="EventsArtistsRaw DB" style="ellipse;whiteSpace=wrap;html=1;" vertex="1" parent="1">
                    <mxGeometry x="-210" y="3450" width="120" height="80" as="geometry"/>
                </mxCell>
                <mxCell id="213" value="" style="endArrow=none;dashed=1;html=1;dashPattern=1 3;strokeWidth=2;exitX=1;exitY=0.5;exitDx=0;exitDy=0;entryX=0;entryY=0.5;entryDx=0;entryDy=0;" edge="1" parent="1" source="193" target="210">
                    <mxGeometry width="50" height="50" relative="1" as="geometry">
                        <mxPoint x="-260" y="3641" as="sourcePoint"/>
                        <mxPoint x="-212.5" y="3641" as="targetPoint"/>
                    </mxGeometry>
                </mxCell>
                <mxCell id="214" value="EventsArtistsRaw DB" style="ellipse;whiteSpace=wrap;html=1;" vertex="1" parent="1">
                    <mxGeometry x="600" y="3706" width="120" height="80" as="geometry"/>
                </mxCell>
                <mxCell id="215" value="" style="endArrow=none;dashed=1;html=1;dashPattern=1 3;strokeWidth=2;exitX=1;exitY=0.5;exitDx=0;exitDy=0;entryX=0;entryY=0.5;entryDx=0;entryDy=0;" edge="1" parent="1" source="183" target="214">
                    <mxGeometry width="50" height="50" relative="1" as="geometry">
                        <mxPoint x="555.0000000000005" y="3650" as="sourcePoint"/>
                        <mxPoint x="610.3911957084342" y="3654.4397636061094" as="targetPoint"/>
                    </mxGeometry>
                </mxCell>
                <mxCell id="216" value="EventsArtistsRaw DB" style="ellipse;whiteSpace=wrap;html=1;" vertex="1" parent="1">
                    <mxGeometry x="1430" y="3700" width="120" height="80" as="geometry"/>
                </mxCell>
                <mxCell id="217" value="" style="endArrow=none;dashed=1;html=1;dashPattern=1 3;strokeWidth=2;exitX=1;exitY=0.5;exitDx=0;exitDy=0;entryX=0;entryY=0.5;entryDx=0;entryDy=0;" edge="1" parent="1" target="216" source="132">
                    <mxGeometry width="50" height="50" relative="1" as="geometry">
                        <mxPoint x="1370.0000000000005" y="3640" as="sourcePoint"/>
                        <mxPoint x="1435.3911957084342" y="3654.4397636061094" as="targetPoint"/>
                    </mxGeometry>
                </mxCell>
                <mxCell id="218" value="EventsArtistsRaw DB" style="ellipse;whiteSpace=wrap;html=1;" vertex="1" parent="1">
                    <mxGeometry x="150" y="4362.5" width="120" height="80" as="geometry"/>
                </mxCell>
                <mxCell id="219" value="" style="endArrow=classic;html=1;entryX=0;entryY=0.5;entryDx=0;entryDy=0;exitX=0.991;exitY=0.587;exitDx=0;exitDy=0;exitPerimeter=0;" edge="1" parent="1" source="218" target="205">
                    <mxGeometry width="50" height="50" relative="1" as="geometry">
                        <mxPoint x="280" y="4502.5" as="sourcePoint"/>
                        <mxPoint x="375" y="4462.5" as="targetPoint"/>
                    </mxGeometry>
                </mxCell>
                <mxCell id="220" value="EventsArtists DB" style="ellipse;whiteSpace=wrap;html=1;" vertex="1" parent="1">
                    <mxGeometry x="610" y="4360" width="120" height="80" as="geometry"/>
                </mxCell>
                <mxCell id="221" value="" style="endArrow=none;dashed=1;html=1;dashPattern=1 3;strokeWidth=2;entryX=0;entryY=0.5;entryDx=0;entryDy=0;exitX=1;exitY=0.5;exitDx=0;exitDy=0;" edge="1" parent="1" target="220" source="205">
                    <mxGeometry width="50" height="50" relative="1" as="geometry">
                        <mxPoint x="515" y="4362.5" as="sourcePoint"/>
                        <mxPoint x="1170" y="4282.5" as="targetPoint"/>
                    </mxGeometry>
                </mxCell>
                <mxCell id="225" value="" style="shape=flexArrow;endArrow=classic;html=1;" edge="1" parent="1">
                    <mxGeometry width="50" height="50" relative="1" as="geometry">
                        <mxPoint x="1671.1699999999996" y="4050.0000000000005" as="sourcePoint"/>
                        <mxPoint x="1671.1699999999996" y="4110" as="targetPoint"/>
                    </mxGeometry>
                </mxCell>
                <mxCell id="226" value="" style="endArrow=none;html=1;fillColor=#fad7ac;strokeColor=#b46504;strokeWidth=6;" edge="1" parent="1">
                    <mxGeometry width="50" height="50" relative="1" as="geometry">
                        <mxPoint x="-845" y="4840" as="sourcePoint"/>
                        <mxPoint x="1685" y="4850" as="targetPoint"/>
                    </mxGeometry>
                </mxCell>
                <mxCell id="227" value="" style="ellipse;whiteSpace=wrap;html=1;aspect=fixed;" vertex="1" parent="1">
                    <mxGeometry x="-762.5" y="4860" width="700" height="700" as="geometry"/>
                </mxCell>
                <mxCell id="228" value="" style="whiteSpace=wrap;html=1;aspect=fixed;" vertex="1" parent="1">
                    <mxGeometry x="-455" y="4990" width="110" height="110" as="geometry"/>
                </mxCell>
                <mxCell id="229" value="MB API" style="text;html=1;strokeColor=none;fillColor=none;align=center;verticalAlign=middle;whiteSpace=wrap;rounded=0;" vertex="1" parent="1">
                    <mxGeometry x="-435" y="5000" width="70" height="20" as="geometry"/>
                </mxCell>
                <mxCell id="230" value="" style="shape=parallelogram;perimeter=parallelogramPerimeter;whiteSpace=wrap;html=1;fixedSize=1;" vertex="1" parent="1">
                    <mxGeometry x="-512.5" y="5156" width="225" height="150" as="geometry"/>
                </mxCell>
                <mxCell id="231" value="MB Albums" style="text;html=1;strokeColor=none;fillColor=none;align=center;verticalAlign=middle;whiteSpace=wrap;rounded=0;" vertex="1" parent="1">
                    <mxGeometry x="-497.5" y="5216" width="40" height="30" as="geometry"/>
                </mxCell>
                <mxCell id="232" value="AlbumsRaw DB" style="ellipse;whiteSpace=wrap;html=1;" vertex="1" parent="1">
                    <mxGeometry x="-227.5" y="5060" width="120" height="80" as="geometry"/>
                </mxCell>
                <mxCell id="233" value="Artists DB" style="ellipse;whiteSpace=wrap;html=1;" vertex="1" parent="1">
                    <mxGeometry x="-690" y="5191" width="120" height="80" as="geometry"/>
                </mxCell>
                <mxCell id="234" value="" style="endArrow=classic;html=1;exitX=1;exitY=0.5;exitDx=0;exitDy=0;entryX=0;entryY=0.5;entryDx=0;entryDy=0;" edge="1" source="233" target="230" parent="1">
                    <mxGeometry width="50" height="50" relative="1" as="geometry">
                        <mxPoint x="-383.9250000000002" y="5167.2" as="sourcePoint"/>
                        <mxPoint x="-337.5" y="5070" as="targetPoint"/>
                    </mxGeometry>
                </mxCell>
                <mxCell id="235" value="" style="endArrow=classic;html=1;exitX=0.5;exitY=1;exitDx=0;exitDy=0;entryX=0.5;entryY=0;entryDx=0;entryDy=0;" edge="1" source="228" target="230" parent="1">
                    <mxGeometry width="50" height="50" relative="1" as="geometry">
                        <mxPoint x="-373.9250000000002" y="5177.2" as="sourcePoint"/>
                        <mxPoint x="-327.5" y="5080" as="targetPoint"/>
                    </mxGeometry>
                </mxCell>
                <mxCell id="236" value="" style="endArrow=none;dashed=1;html=1;dashPattern=1 3;strokeWidth=2;exitX=1;exitY=0.5;exitDx=0;exitDy=0;" edge="1" source="230" target="232" parent="1">
                    <mxGeometry width="50" height="50" relative="1" as="geometry">
                        <mxPoint x="-112.5" y="5490" as="sourcePoint"/>
                        <mxPoint x="-62.5" y="5440" as="targetPoint"/>
                    </mxGeometry>
                </mxCell>
                <mxCell id="239" value="" style="ellipse;whiteSpace=wrap;html=1;aspect=fixed;" vertex="1" parent="1">
                    <mxGeometry x="92.5" y="4881" width="700" height="700" as="geometry"/>
                </mxCell>
                <mxCell id="240" value="" style="whiteSpace=wrap;html=1;aspect=fixed;" vertex="1" parent="1">
                    <mxGeometry x="400" y="5011" width="110" height="110" as="geometry"/>
                </mxCell>
                <mxCell id="241" value="LFM API" style="text;html=1;strokeColor=none;fillColor=none;align=center;verticalAlign=middle;whiteSpace=wrap;rounded=0;" vertex="1" parent="1">
                    <mxGeometry x="420" y="5021" width="70" height="20" as="geometry"/>
                </mxCell>
                <mxCell id="242" value="" style="shape=parallelogram;perimeter=parallelogramPerimeter;whiteSpace=wrap;html=1;fixedSize=1;" vertex="1" parent="1">
                    <mxGeometry x="342.5" y="5177" width="225" height="150" as="geometry"/>
                </mxCell>
                <mxCell id="243" value="LFM Albums" style="text;html=1;strokeColor=none;fillColor=none;align=center;verticalAlign=middle;whiteSpace=wrap;rounded=0;" vertex="1" parent="1">
                    <mxGeometry x="357.5" y="5237" width="40" height="30" as="geometry"/>
                </mxCell>
                <mxCell id="244" value="AlbumsRaw DB" style="ellipse;whiteSpace=wrap;html=1;" vertex="1" parent="1">
                    <mxGeometry x="605" y="5212" width="120" height="80" as="geometry"/>
                </mxCell>
                <mxCell id="245" value="Artists DB" style="ellipse;whiteSpace=wrap;html=1;" vertex="1" parent="1">
                    <mxGeometry x="165" y="5212" width="120" height="80" as="geometry"/>
                </mxCell>
                <mxCell id="246" value="" style="endArrow=classic;html=1;exitX=1;exitY=0.5;exitDx=0;exitDy=0;entryX=0;entryY=0.5;entryDx=0;entryDy=0;" edge="1" parent="1" source="245" target="242">
                    <mxGeometry width="50" height="50" relative="1" as="geometry">
                        <mxPoint x="471.0749999999998" y="5188.2" as="sourcePoint"/>
                        <mxPoint x="517.5" y="5091" as="targetPoint"/>
                    </mxGeometry>
                </mxCell>
                <mxCell id="247" value="" style="endArrow=classic;html=1;exitX=0.5;exitY=1;exitDx=0;exitDy=0;entryX=0.5;entryY=0;entryDx=0;entryDy=0;" edge="1" parent="1" source="240" target="242">
                    <mxGeometry width="50" height="50" relative="1" as="geometry">
                        <mxPoint x="481.0749999999998" y="5198.2" as="sourcePoint"/>
                        <mxPoint x="527.5" y="5101" as="targetPoint"/>
                    </mxGeometry>
                </mxCell>
                <mxCell id="248" value="" style="endArrow=none;dashed=1;html=1;dashPattern=1 3;strokeWidth=2;exitX=1;exitY=0.5;exitDx=0;exitDy=0;" edge="1" parent="1" source="242" target="244">
                    <mxGeometry width="50" height="50" relative="1" as="geometry">
                        <mxPoint x="742.5" y="5511" as="sourcePoint"/>
                        <mxPoint x="792.5" y="5461" as="targetPoint"/>
                    </mxGeometry>
                </mxCell>
                <mxCell id="249" value="" style="ellipse;whiteSpace=wrap;html=1;aspect=fixed;" vertex="1" parent="1">
                    <mxGeometry x="982.5" y="4890" width="700" height="700" as="geometry"/>
                </mxCell>
                <mxCell id="250" value="" style="whiteSpace=wrap;html=1;aspect=fixed;" vertex="1" parent="1">
                    <mxGeometry x="1290" y="5020" width="110" height="110" as="geometry"/>
                </mxCell>
                <mxCell id="251" value="Spotify API" style="text;html=1;strokeColor=none;fillColor=none;align=center;verticalAlign=middle;whiteSpace=wrap;rounded=0;" vertex="1" parent="1">
                    <mxGeometry x="1310" y="5030" width="70" height="20" as="geometry"/>
                </mxCell>
                <mxCell id="252" value="" style="shape=parallelogram;perimeter=parallelogramPerimeter;whiteSpace=wrap;html=1;fixedSize=1;" vertex="1" parent="1">
                    <mxGeometry x="1232.5" y="5186" width="225" height="150" as="geometry"/>
                </mxCell>
                <mxCell id="253" value="Spotify Albums" style="text;html=1;strokeColor=none;fillColor=none;align=center;verticalAlign=middle;whiteSpace=wrap;rounded=0;" vertex="1" parent="1">
                    <mxGeometry x="1247.5" y="5246" width="40" height="30" as="geometry"/>
                </mxCell>
                <mxCell id="254" value="AlbumsRaw DB" style="ellipse;whiteSpace=wrap;html=1;" vertex="1" parent="1">
                    <mxGeometry x="1510" y="5121" width="120" height="80" as="geometry"/>
                </mxCell>
                <mxCell id="255" value="Artists DB" style="ellipse;whiteSpace=wrap;html=1;" vertex="1" parent="1">
                    <mxGeometry x="1055" y="5221" width="120" height="80" as="geometry"/>
                </mxCell>
                <mxCell id="256" value="" style="endArrow=classic;html=1;exitX=1;exitY=0.5;exitDx=0;exitDy=0;entryX=0;entryY=0.5;entryDx=0;entryDy=0;" edge="1" parent="1" source="255" target="252">
                    <mxGeometry width="50" height="50" relative="1" as="geometry">
                        <mxPoint x="1361.0749999999998" y="5197.2" as="sourcePoint"/>
                        <mxPoint x="1407.5" y="5100" as="targetPoint"/>
                    </mxGeometry>
                </mxCell>
                <mxCell id="257" value="" style="endArrow=classic;html=1;exitX=0.5;exitY=1;exitDx=0;exitDy=0;entryX=0.5;entryY=0;entryDx=0;entryDy=0;" edge="1" parent="1" source="250" target="252">
                    <mxGeometry width="50" height="50" relative="1" as="geometry">
                        <mxPoint x="1371.0749999999998" y="5207.2" as="sourcePoint"/>
                        <mxPoint x="1417.5" y="5110" as="targetPoint"/>
                    </mxGeometry>
                </mxCell>
                <mxCell id="258" value="" style="endArrow=none;dashed=1;html=1;dashPattern=1 3;strokeWidth=2;exitX=1;exitY=0.5;exitDx=0;exitDy=0;" edge="1" parent="1" source="252" target="254">
                    <mxGeometry width="50" height="50" relative="1" as="geometry">
                        <mxPoint x="1632.5" y="5520" as="sourcePoint"/>
                        <mxPoint x="1682.5" y="5470" as="targetPoint"/>
                    </mxGeometry>
                </mxCell>
                <mxCell id="259" value="" style="endArrow=none;html=1;fillColor=#fad7ac;strokeColor=#b46504;strokeWidth=6;" edge="1" parent="1">
                    <mxGeometry width="50" height="50" relative="1" as="geometry">
                        <mxPoint x="-840" y="5610" as="sourcePoint"/>
                        <mxPoint x="1690" y="5620" as="targetPoint"/>
                    </mxGeometry>
                </mxCell>
                <mxCell id="260" value="" style="shape=flexArrow;endArrow=classic;html=1;" edge="1" parent="1">
                    <mxGeometry width="50" height="50" relative="1" as="geometry">
                        <mxPoint x="1671.17" y="4869.999999999999" as="sourcePoint"/>
                        <mxPoint x="1671.17" y="4929.999999999999" as="targetPoint"/>
                    </mxGeometry>
                </mxCell>
                <mxCell id="261" value="" style="ellipse;whiteSpace=wrap;html=1;aspect=fixed;" vertex="1" parent="1">
                    <mxGeometry x="155" y="5650" width="570" height="570" as="geometry"/>
                </mxCell>
                <mxCell id="262" value="Albums Deduplication" style="rounded=1;whiteSpace=wrap;html=1;" vertex="1" parent="1">
                    <mxGeometry x="375" y="5895" width="150" height="80" as="geometry"/>
                </mxCell>
                <mxCell id="263" value="AlbumsRaw DB" style="ellipse;whiteSpace=wrap;html=1;" vertex="1" parent="1">
                    <mxGeometry x="185" y="5895" width="120" height="80" as="geometry"/>
                </mxCell>
                <mxCell id="264" value="" style="endArrow=classic;html=1;entryX=0;entryY=0.5;entryDx=0;entryDy=0;exitX=1;exitY=0.5;exitDx=0;exitDy=0;" edge="1" parent="1" source="263" target="262">
                    <mxGeometry width="50" height="50" relative="1" as="geometry">
                        <mxPoint x="720" y="5955" as="sourcePoint"/>
                        <mxPoint x="770" y="5905" as="targetPoint"/>
                    </mxGeometry>
                </mxCell>
                <mxCell id="265" value="Albums DB" style="ellipse;whiteSpace=wrap;html=1;" vertex="1" parent="1">
                    <mxGeometry x="575" y="5895" width="120" height="80" as="geometry"/>
                </mxCell>
                <mxCell id="266" value="" style="endArrow=none;dashed=1;html=1;dashPattern=1 3;strokeWidth=2;entryX=0;entryY=0.5;entryDx=0;entryDy=0;exitX=1;exitY=0.5;exitDx=0;exitDy=0;" edge="1" parent="1" source="262" target="265">
                    <mxGeometry width="50" height="50" relative="1" as="geometry">
                        <mxPoint x="1130" y="5905" as="sourcePoint"/>
                        <mxPoint x="1180" y="5855" as="targetPoint"/>
                    </mxGeometry>
                </mxCell>
                <mxCell id="268" value="" style="shape=flexArrow;endArrow=classic;html=1;" edge="1" parent="1">
                    <mxGeometry width="50" height="50" relative="1" as="geometry">
                        <mxPoint x="1671.17" y="5639.999999999999" as="sourcePoint"/>
                        <mxPoint x="1671.17" y="5699.999999999998" as="targetPoint"/>
                    </mxGeometry>
                </mxCell>
                <mxCell id="269" value="" style="endArrow=none;html=1;fillColor=#fad7ac;strokeColor=#b46504;strokeWidth=6;" edge="1" parent="1">
                    <mxGeometry width="50" height="50" relative="1" as="geometry">
                        <mxPoint x="-840" y="6250" as="sourcePoint"/>
                        <mxPoint x="1690" y="6260" as="targetPoint"/>
                    </mxGeometry>
                </mxCell>
                <mxCell id="270" value="ArtistsGenresRaw DB" style="ellipse;whiteSpace=wrap;html=1;" vertex="1" parent="1">
                    <mxGeometry x="-272.5" y="1460" width="120" height="80" as="geometry"/>
                </mxCell>
                <mxCell id="271" value="" style="endArrow=none;dashed=1;html=1;exitX=0.75;exitY=1;exitDx=0;exitDy=0;entryX=0.5;entryY=0;entryDx=0;entryDy=0;" edge="1" parent="1" source="30" target="270">
                    <mxGeometry width="50" height="50" relative="1" as="geometry">
                        <mxPoint x="-559.95" y="1315.8500000000004" as="sourcePoint"/>
                        <mxPoint x="-435" y="1476" as="targetPoint"/>
                        <Array as="points">
                            <mxPoint x="-410" y="1360"/>
                        </Array>
                    </mxGeometry>
                </mxCell>
                <mxCell id="272" value="" style="endArrow=none;dashed=1;html=1;exitX=0.5;exitY=1;exitDx=0;exitDy=0;entryX=0.5;entryY=0;entryDx=0;entryDy=0;" edge="1" parent="1" source="33" target="270">
                    <mxGeometry width="50" height="50" relative="1" as="geometry">
                        <mxPoint x="-327.4999999999998" y="1530" as="sourcePoint"/>
                        <mxPoint x="-254.99999999999977" y="1322" as="targetPoint"/>
                    </mxGeometry>
                </mxCell>
                <mxCell id="273" value="ArtistsGenres DB" style="ellipse;whiteSpace=wrap;html=1;" vertex="1" parent="1">
                    <mxGeometry x="-232.5" y="5246" width="120" height="80" as="geometry"/>
                </mxCell>
                <mxCell id="274" value="" style="endArrow=none;dashed=1;html=1;dashPattern=1 3;strokeWidth=2;exitX=1;exitY=0.5;exitDx=0;exitDy=0;" edge="1" parent="1" target="273" source="230">
                    <mxGeometry width="50" height="50" relative="1" as="geometry">
                        <mxPoint x="-297.4999999999998" y="5337" as="sourcePoint"/>
                        <mxPoint x="-62.5" y="5546" as="targetPoint"/>
                    </mxGeometry>
                </mxCell>
                <mxCell id="275" value="ArtistsGenresRaw DB" style="ellipse;whiteSpace=wrap;html=1;" vertex="1" parent="1">
                    <mxGeometry x="-200" y="3750" width="120" height="80" as="geometry"/>
                </mxCell>
                <mxCell id="276" value="" style="endArrow=none;dashed=1;html=1;dashPattern=1 3;strokeWidth=2;entryX=0;entryY=0;entryDx=0;entryDy=0;" edge="1" parent="1" target="275">
                    <mxGeometry width="50" height="50" relative="1" as="geometry">
                        <mxPoint x="-270" y="3630" as="sourcePoint"/>
                        <mxPoint x="-52.5" y="4070" as="targetPoint"/>
                    </mxGeometry>
                </mxCell>
                <mxCell id="277" value="Genres&amp;nbsp;DB" style="ellipse;whiteSpace=wrap;html=1;" vertex="1" parent="1">
                    <mxGeometry x="-222.5" y="5150" width="120" height="80" as="geometry"/>
                </mxCell>
                <mxCell id="278" value="" style="endArrow=none;dashed=1;html=1;dashPattern=1 3;strokeWidth=2;exitX=1;exitY=0.5;exitDx=0;exitDy=0;" edge="1" parent="1" target="277" source="230">
                    <mxGeometry width="50" height="50" relative="1" as="geometry">
                        <mxPoint x="-277.5" y="5142" as="sourcePoint"/>
                        <mxPoint x="-42.5" y="5457" as="targetPoint"/>
                    </mxGeometry>
                </mxCell>
                <mxCell id="279" value="Genres DB" style="ellipse;whiteSpace=wrap;html=1;" vertex="1" parent="1">
                    <mxGeometry x="-200" y="3646" width="120" height="80" as="geometry"/>
                </mxCell>
                <mxCell id="280" value="" style="endArrow=none;dashed=1;html=1;dashPattern=1 3;strokeWidth=2;exitX=1;exitY=0.5;exitDx=0;exitDy=0;entryX=0;entryY=0.5;entryDx=0;entryDy=0;" edge="1" parent="1" source="193" target="279">
                    <mxGeometry width="50" height="50" relative="1" as="geometry">
                        <mxPoint x="-260" y="3641" as="sourcePoint"/>
                        <mxPoint x="-183.10854547033296" y="3613.612807991939" as="targetPoint"/>
                    </mxGeometry>
                </mxCell>
                <mxCell id="281" value="ArtistsGenres DB" style="ellipse;whiteSpace=wrap;html=1;" vertex="1" parent="1">
                    <mxGeometry x="1515" y="5312" width="120" height="80" as="geometry"/>
                </mxCell>
                <mxCell id="282" value="" style="endArrow=none;dashed=1;html=1;dashPattern=1 3;strokeWidth=2;exitX=1;exitY=0.5;exitDx=0;exitDy=0;" edge="1" parent="1" target="281" source="252">
                    <mxGeometry width="50" height="50" relative="1" as="geometry">
                        <mxPoint x="1450" y="5297" as="sourcePoint"/>
                        <mxPoint x="1685" y="5612" as="targetPoint"/>
                    </mxGeometry>
                </mxCell>
                <mxCell id="283" value="Genres&amp;nbsp;DB" style="ellipse;whiteSpace=wrap;html=1;" vertex="1" parent="1">
                    <mxGeometry x="1525" y="5216" width="120" height="80" as="geometry"/>
                </mxCell>
                <mxCell id="284" value="" style="endArrow=none;dashed=1;html=1;dashPattern=1 3;strokeWidth=2;exitX=1;exitY=0.5;exitDx=0;exitDy=0;" edge="1" parent="1" target="283" source="252">
                    <mxGeometry width="50" height="50" relative="1" as="geometry">
                        <mxPoint x="1450" y="5297" as="sourcePoint"/>
                        <mxPoint x="1705" y="5523" as="targetPoint"/>
                    </mxGeometry>
                </mxCell>
                <mxCell id="285" value="" style="ellipse;whiteSpace=wrap;html=1;aspect=fixed;" vertex="1" parent="1">
                    <mxGeometry x="-760" y="6280" width="700" height="700" as="geometry"/>
                </mxCell>
                <mxCell id="286" value="" style="whiteSpace=wrap;html=1;aspect=fixed;" vertex="1" parent="1">
                    <mxGeometry x="-452.5" y="6410" width="110" height="110" as="geometry"/>
                </mxCell>
                <mxCell id="287" value="MB API" style="text;html=1;strokeColor=none;fillColor=none;align=center;verticalAlign=middle;whiteSpace=wrap;rounded=0;" vertex="1" parent="1">
                    <mxGeometry x="-432.5" y="6420" width="70" height="20" as="geometry"/>
                </mxCell>
                <mxCell id="288" value="" style="shape=parallelogram;perimeter=parallelogramPerimeter;whiteSpace=wrap;html=1;fixedSize=1;" vertex="1" parent="1">
                    <mxGeometry x="-510" y="6576" width="225" height="150" as="geometry"/>
                </mxCell>
                <mxCell id="289" value="MB Songs" style="text;html=1;strokeColor=none;fillColor=none;align=center;verticalAlign=middle;whiteSpace=wrap;rounded=0;" vertex="1" parent="1">
                    <mxGeometry x="-495" y="6636" width="40" height="30" as="geometry"/>
                </mxCell>
                <mxCell id="290" value="SongsRaw DB" style="ellipse;whiteSpace=wrap;html=1;" vertex="1" parent="1">
                    <mxGeometry x="-225" y="6480" width="120" height="80" as="geometry"/>
                </mxCell>
                <mxCell id="291" value="Artists DB" style="ellipse;whiteSpace=wrap;html=1;" vertex="1" parent="1">
                    <mxGeometry x="-685" y="6556" width="120" height="80" as="geometry"/>
                </mxCell>
                <mxCell id="292" value="" style="endArrow=classic;html=1;exitX=1;exitY=0.5;exitDx=0;exitDy=0;entryX=0;entryY=0.5;entryDx=0;entryDy=0;" edge="1" parent="1" source="291" target="288">
                    <mxGeometry width="50" height="50" relative="1" as="geometry">
                        <mxPoint x="-381.4250000000002" y="6587.2" as="sourcePoint"/>
                        <mxPoint x="-335" y="6490" as="targetPoint"/>
                    </mxGeometry>
                </mxCell>
                <mxCell id="293" value="" style="endArrow=classic;html=1;exitX=0.5;exitY=1;exitDx=0;exitDy=0;entryX=0.5;entryY=0;entryDx=0;entryDy=0;" edge="1" parent="1" source="286" target="288">
                    <mxGeometry width="50" height="50" relative="1" as="geometry">
                        <mxPoint x="-371.4250000000002" y="6597.2" as="sourcePoint"/>
                        <mxPoint x="-325" y="6500" as="targetPoint"/>
                    </mxGeometry>
                </mxCell>
                <mxCell id="294" value="" style="endArrow=none;dashed=1;html=1;dashPattern=1 3;strokeWidth=2;exitX=1;exitY=0.5;exitDx=0;exitDy=0;" edge="1" parent="1" source="288" target="290">
                    <mxGeometry width="50" height="50" relative="1" as="geometry">
                        <mxPoint x="-110" y="6910" as="sourcePoint"/>
                        <mxPoint x="-60" y="6860" as="targetPoint"/>
                    </mxGeometry>
                </mxCell>
                <mxCell id="295" value="ArtistsGenres DB" style="ellipse;whiteSpace=wrap;html=1;" vertex="1" parent="1">
                    <mxGeometry x="-230" y="6666" width="120" height="80" as="geometry"/>
                </mxCell>
                <mxCell id="296" value="" style="endArrow=none;dashed=1;html=1;dashPattern=1 3;strokeWidth=2;exitX=1;exitY=0.5;exitDx=0;exitDy=0;" edge="1" parent="1" source="288" target="295">
                    <mxGeometry width="50" height="50" relative="1" as="geometry">
                        <mxPoint x="-294.9999999999998" y="6757" as="sourcePoint"/>
                        <mxPoint x="-60" y="6966" as="targetPoint"/>
                    </mxGeometry>
                </mxCell>
                <mxCell id="297" value="Genres&amp;nbsp;DB" style="ellipse;whiteSpace=wrap;html=1;" vertex="1" parent="1">
                    <mxGeometry x="-220" y="6570" width="120" height="80" as="geometry"/>
                </mxCell>
                <mxCell id="298" value="" style="endArrow=none;dashed=1;html=1;dashPattern=1 3;strokeWidth=2;exitX=1;exitY=0.5;exitDx=0;exitDy=0;" edge="1" parent="1" source="288" target="297">
                    <mxGeometry width="50" height="50" relative="1" as="geometry">
                        <mxPoint x="-275" y="6562" as="sourcePoint"/>
                        <mxPoint x="-40" y="6877" as="targetPoint"/>
                    </mxGeometry>
                </mxCell>
                <mxCell id="299" value="Albums DB" style="ellipse;whiteSpace=wrap;html=1;" vertex="1" parent="1">
                    <mxGeometry x="-685" y="6646" width="120" height="80" as="geometry"/>
                </mxCell>
                <mxCell id="300" value="" style="endArrow=classic;html=1;exitX=1;exitY=0.5;exitDx=0;exitDy=0;entryX=0;entryY=0.5;entryDx=0;entryDy=0;" edge="1" parent="1" source="299" target="288">
                    <mxGeometry width="50" height="50" relative="1" as="geometry">
                        <mxPoint x="-565" y="6746" as="sourcePoint"/>
                        <mxPoint x="-505" y="6817" as="targetPoint"/>
                    </mxGeometry>
                </mxCell>
                <mxCell id="301" value="" style="shape=flexArrow;endArrow=classic;html=1;" edge="1" parent="1">
                    <mxGeometry width="50" height="50" relative="1" as="geometry">
                        <mxPoint x="1670.46" y="6270" as="sourcePoint"/>
                        <mxPoint x="1670.46" y="6329.999999999998" as="targetPoint"/>
                    </mxGeometry>
                </mxCell>
                <mxCell id="302" value="" style="ellipse;whiteSpace=wrap;html=1;aspect=fixed;" vertex="1" parent="1">
                    <mxGeometry x="63.75" y="6270" width="700" height="700" as="geometry"/>
                </mxCell>
                <mxCell id="303" value="" style="whiteSpace=wrap;html=1;aspect=fixed;" vertex="1" parent="1">
                    <mxGeometry x="371.25" y="6400" width="110" height="110" as="geometry"/>
                </mxCell>
                <mxCell id="304" value="LFM API" style="text;html=1;strokeColor=none;fillColor=none;align=center;verticalAlign=middle;whiteSpace=wrap;rounded=0;" vertex="1" parent="1">
                    <mxGeometry x="391.25" y="6410" width="70" height="20" as="geometry"/>
                </mxCell>
                <mxCell id="305" value="" style="shape=parallelogram;perimeter=parallelogramPerimeter;whiteSpace=wrap;html=1;fixedSize=1;" vertex="1" parent="1">
                    <mxGeometry x="313.75" y="6566" width="225" height="150" as="geometry"/>
                </mxCell>
                <mxCell id="306" value="LFM Songs" style="text;html=1;strokeColor=none;fillColor=none;align=center;verticalAlign=middle;whiteSpace=wrap;rounded=0;" vertex="1" parent="1">
                    <mxGeometry x="328.75" y="6626" width="40" height="30" as="geometry"/>
                </mxCell>
                <mxCell id="307" value="SongsRaw DB" style="ellipse;whiteSpace=wrap;html=1;" vertex="1" parent="1">
                    <mxGeometry x="598.75" y="6601" width="120" height="80" as="geometry"/>
                </mxCell>
                <mxCell id="308" value="Artists DB" style="ellipse;whiteSpace=wrap;html=1;" vertex="1" parent="1">
                    <mxGeometry x="138.75" y="6546" width="120" height="80" as="geometry"/>
                </mxCell>
                <mxCell id="309" value="" style="endArrow=classic;html=1;exitX=1;exitY=0.5;exitDx=0;exitDy=0;entryX=0;entryY=0.5;entryDx=0;entryDy=0;" edge="1" parent="1" source="308" target="305">
                    <mxGeometry width="50" height="50" relative="1" as="geometry">
                        <mxPoint x="442.3249999999998" y="6577.2" as="sourcePoint"/>
                        <mxPoint x="488.75" y="6480" as="targetPoint"/>
                    </mxGeometry>
                </mxCell>
                <mxCell id="310" value="" style="endArrow=classic;html=1;exitX=0.5;exitY=1;exitDx=0;exitDy=0;entryX=0.5;entryY=0;entryDx=0;entryDy=0;" edge="1" parent="1" source="303" target="305">
                    <mxGeometry width="50" height="50" relative="1" as="geometry">
                        <mxPoint x="452.3249999999998" y="6587.2" as="sourcePoint"/>
                        <mxPoint x="498.75" y="6490" as="targetPoint"/>
                    </mxGeometry>
                </mxCell>
                <mxCell id="311" value="" style="endArrow=none;dashed=1;html=1;dashPattern=1 3;strokeWidth=2;exitX=1;exitY=0.5;exitDx=0;exitDy=0;" edge="1" parent="1" source="305" target="307">
                    <mxGeometry width="50" height="50" relative="1" as="geometry">
                        <mxPoint x="713.75" y="6900" as="sourcePoint"/>
                        <mxPoint x="763.75" y="6850" as="targetPoint"/>
                    </mxGeometry>
                </mxCell>
                <mxCell id="316" value="Albums DB" style="ellipse;whiteSpace=wrap;html=1;" vertex="1" parent="1">
                    <mxGeometry x="138.75" y="6636" width="120" height="80" as="geometry"/>
                </mxCell>
                <mxCell id="317" value="" style="endArrow=classic;html=1;exitX=1;exitY=0.5;exitDx=0;exitDy=0;entryX=0;entryY=0.5;entryDx=0;entryDy=0;" edge="1" parent="1" source="316" target="305">
                    <mxGeometry width="50" height="50" relative="1" as="geometry">
                        <mxPoint x="258.75" y="6736" as="sourcePoint"/>
                        <mxPoint x="318.75" y="6807" as="targetPoint"/>
                    </mxGeometry>
                </mxCell>
                <mxCell id="318" value="" style="ellipse;whiteSpace=wrap;html=1;aspect=fixed;" vertex="1" parent="1">
                    <mxGeometry x="935" y="6290" width="700" height="700" as="geometry"/>
                </mxCell>
                <mxCell id="319" value="" style="whiteSpace=wrap;html=1;aspect=fixed;" vertex="1" parent="1">
                    <mxGeometry x="1242.5" y="6420" width="110" height="110" as="geometry"/>
                </mxCell>
                <mxCell id="320" value="MB API" style="text;html=1;strokeColor=none;fillColor=none;align=center;verticalAlign=middle;whiteSpace=wrap;rounded=0;" vertex="1" parent="1">
                    <mxGeometry x="1262.5" y="6430" width="70" height="20" as="geometry"/>
                </mxCell>
                <mxCell id="321" value="" style="shape=parallelogram;perimeter=parallelogramPerimeter;whiteSpace=wrap;html=1;fixedSize=1;" vertex="1" parent="1">
                    <mxGeometry x="1185" y="6586" width="225" height="150" as="geometry"/>
                </mxCell>
                <mxCell id="322" value="MB Songs" style="text;html=1;strokeColor=none;fillColor=none;align=center;verticalAlign=middle;whiteSpace=wrap;rounded=0;" vertex="1" parent="1">
                    <mxGeometry x="1200" y="6646" width="40" height="30" as="geometry"/>
                </mxCell>
                <mxCell id="323" value="SongsRaw DB" style="ellipse;whiteSpace=wrap;html=1;" vertex="1" parent="1">
                    <mxGeometry x="1470" y="6490" width="120" height="80" as="geometry"/>
                </mxCell>
                <mxCell id="324" value="Artists DB" style="ellipse;whiteSpace=wrap;html=1;" vertex="1" parent="1">
                    <mxGeometry x="1010" y="6566" width="120" height="80" as="geometry"/>
                </mxCell>
                <mxCell id="325" value="" style="endArrow=classic;html=1;exitX=1;exitY=0.5;exitDx=0;exitDy=0;entryX=0;entryY=0.5;entryDx=0;entryDy=0;" edge="1" parent="1" source="324" target="321">
                    <mxGeometry width="50" height="50" relative="1" as="geometry">
                        <mxPoint x="1313.5749999999998" y="6597.2" as="sourcePoint"/>
                        <mxPoint x="1360" y="6500" as="targetPoint"/>
                    </mxGeometry>
                </mxCell>
                <mxCell id="326" value="" style="endArrow=classic;html=1;exitX=0.5;exitY=1;exitDx=0;exitDy=0;entryX=0.5;entryY=0;entryDx=0;entryDy=0;" edge="1" parent="1" source="319" target="321">
                    <mxGeometry width="50" height="50" relative="1" as="geometry">
                        <mxPoint x="1323.5749999999998" y="6607.2" as="sourcePoint"/>
                        <mxPoint x="1370" y="6510" as="targetPoint"/>
                    </mxGeometry>
                </mxCell>
                <mxCell id="327" value="" style="endArrow=none;dashed=1;html=1;dashPattern=1 3;strokeWidth=2;exitX=1;exitY=0.5;exitDx=0;exitDy=0;" edge="1" parent="1" source="321" target="323">
                    <mxGeometry width="50" height="50" relative="1" as="geometry">
                        <mxPoint x="1585" y="6920" as="sourcePoint"/>
                        <mxPoint x="1635" y="6870" as="targetPoint"/>
                    </mxGeometry>
                </mxCell>
                <mxCell id="328" value="ArtistsGenres DB" style="ellipse;whiteSpace=wrap;html=1;" vertex="1" parent="1">
                    <mxGeometry x="1465" y="6676" width="120" height="80" as="geometry"/>
                </mxCell>
                <mxCell id="329" value="" style="endArrow=none;dashed=1;html=1;dashPattern=1 3;strokeWidth=2;exitX=1;exitY=0.5;exitDx=0;exitDy=0;" edge="1" parent="1" source="321" target="328">
                    <mxGeometry width="50" height="50" relative="1" as="geometry">
                        <mxPoint x="1400.0000000000002" y="6767" as="sourcePoint"/>
                        <mxPoint x="1635" y="6976" as="targetPoint"/>
                    </mxGeometry>
                </mxCell>
                <mxCell id="330" value="Genres&amp;nbsp;DB" style="ellipse;whiteSpace=wrap;html=1;" vertex="1" parent="1">
                    <mxGeometry x="1475" y="6580" width="120" height="80" as="geometry"/>
                </mxCell>
                <mxCell id="331" value="" style="endArrow=none;dashed=1;html=1;dashPattern=1 3;strokeWidth=2;exitX=1;exitY=0.5;exitDx=0;exitDy=0;" edge="1" parent="1" source="321" target="330">
                    <mxGeometry width="50" height="50" relative="1" as="geometry">
                        <mxPoint x="1420" y="6572" as="sourcePoint"/>
                        <mxPoint x="1655" y="6887" as="targetPoint"/>
                    </mxGeometry>
                </mxCell>
                <mxCell id="332" value="Albums DB" style="ellipse;whiteSpace=wrap;html=1;" vertex="1" parent="1">
                    <mxGeometry x="1010" y="6656" width="120" height="80" as="geometry"/>
                </mxCell>
                <mxCell id="333" value="" style="endArrow=classic;html=1;exitX=1;exitY=0.5;exitDx=0;exitDy=0;entryX=0;entryY=0.5;entryDx=0;entryDy=0;" edge="1" parent="1" source="332" target="321">
                    <mxGeometry width="50" height="50" relative="1" as="geometry">
                        <mxPoint x="1130" y="6756" as="sourcePoint"/>
                        <mxPoint x="1190" y="6827" as="targetPoint"/>
                    </mxGeometry>
                </mxCell>
                <mxCell id="334" value="" style="endArrow=none;html=1;fillColor=#fad7ac;strokeColor=#b46504;strokeWidth=6;" edge="1" parent="1">
                    <mxGeometry width="50" height="50" relative="1" as="geometry">
                        <mxPoint x="-840" y="7000" as="sourcePoint"/>
                        <mxPoint x="1690" y="7010" as="targetPoint"/>
                    </mxGeometry>
                </mxCell>
                <mxCell id="335" value="" style="ellipse;whiteSpace=wrap;html=1;aspect=fixed;" vertex="1" parent="1">
                    <mxGeometry x="193.75" y="7030" width="570" height="570" as="geometry"/>
                </mxCell>
                <mxCell id="336" value="Songs Deduplication" style="rounded=1;whiteSpace=wrap;html=1;" vertex="1" parent="1">
                    <mxGeometry x="413.75" y="7275" width="150" height="80" as="geometry"/>
                </mxCell>
                <mxCell id="337" value="SongsRaw DB" style="ellipse;whiteSpace=wrap;html=1;" vertex="1" parent="1">
                    <mxGeometry x="223.75" y="7275" width="120" height="80" as="geometry"/>
                </mxCell>
                <mxCell id="338" value="" style="endArrow=classic;html=1;entryX=0;entryY=0.5;entryDx=0;entryDy=0;exitX=1;exitY=0.5;exitDx=0;exitDy=0;" edge="1" parent="1" source="337" target="336">
                    <mxGeometry width="50" height="50" relative="1" as="geometry">
                        <mxPoint x="758.75" y="7335" as="sourcePoint"/>
                        <mxPoint x="808.75" y="7285" as="targetPoint"/>
                    </mxGeometry>
                </mxCell>
                <mxCell id="339" value="Songs DB" style="ellipse;whiteSpace=wrap;html=1;" vertex="1" parent="1">
                    <mxGeometry x="613.75" y="7275" width="120" height="80" as="geometry"/>
                </mxCell>
                <mxCell id="340" value="" style="endArrow=none;dashed=1;html=1;dashPattern=1 3;strokeWidth=2;entryX=0;entryY=0.5;entryDx=0;entryDy=0;exitX=1;exitY=0.5;exitDx=0;exitDy=0;" edge="1" parent="1" source="336" target="339">
                    <mxGeometry width="50" height="50" relative="1" as="geometry">
                        <mxPoint x="1168.75" y="7285" as="sourcePoint"/>
                        <mxPoint x="1218.75" y="7235" as="targetPoint"/>
                    </mxGeometry>
                </mxCell>
                <mxCell id="347" value="ArtistsGenresRaw DB" style="ellipse;whiteSpace=wrap;html=1;" vertex="1" parent="1">
                    <mxGeometry x="142.5" y="4537.5" width="120" height="80" as="geometry"/>
                </mxCell>
                <mxCell id="348" value="" style="endArrow=classic;html=1;entryX=0;entryY=0.5;entryDx=0;entryDy=0;exitX=1;exitY=0.5;exitDx=0;exitDy=0;" edge="1" parent="1" source="347" target="205">
                    <mxGeometry width="50" height="50" relative="1" as="geometry">
                        <mxPoint x="702.5" y="4557.5" as="sourcePoint"/>
                        <mxPoint x="357.5" y="4537.5" as="targetPoint"/>
                    </mxGeometry>
                </mxCell>
                <mxCell id="349" value="ArtistsGenres DB" style="ellipse;whiteSpace=wrap;html=1;" vertex="1" parent="1">
                    <mxGeometry x="620" y="4540" width="120" height="80" as="geometry"/>
                </mxCell>
                <mxCell id="350" value="" style="endArrow=none;dashed=1;html=1;dashPattern=1 3;strokeWidth=2;entryX=0;entryY=0.5;entryDx=0;entryDy=0;exitX=1;exitY=0.5;exitDx=0;exitDy=0;" edge="1" parent="1" target="349" source="205">
                    <mxGeometry width="50" height="50" relative="1" as="geometry">
                        <mxPoint x="515" y="4535" as="sourcePoint"/>
                        <mxPoint x="1170" y="4455" as="targetPoint"/>
                    </mxGeometry>
                </mxCell>
            </root>
        </mxGraphModel>
    </diagram>
</mxfile>